<mxfile host="app.diagrams.net" modified="2021-04-13T12:23:49.470Z" agent="5.0 (Windows)" etag="8RPZ6q0scAO9OxSKPpdX" version="14.6.0" type="github">
  <diagram id="C5RBs43oDa-KdzZeNtuy" name="Page-1">
    <mxGraphModel dx="2595" dy="1368" grid="1" gridSize="10" guides="1" tooltips="1" connect="1" arrows="1" fold="1" page="1" pageScale="1" pageWidth="2000" pageHeight="2500" math="0" shadow="0">
      <root>
        <mxCell id="WIyWlLk6GJQsqaUBKTNV-0" />
        <mxCell id="WIyWlLk6GJQsqaUBKTNV-1" parent="WIyWlLk6GJQsqaUBKTNV-0" />
        <mxCell id="5NiMujkeU3VhjjDBXKxC-0" value="&lt;p style=&quot;margin: 0px ; margin-top: 4px ; text-align: center&quot;&gt;&lt;i&gt;&amp;lt;&amp;lt;Interface&amp;gt;&amp;gt;&lt;/i&gt;&lt;br&gt;&lt;b&gt;Interface: IClient&lt;br&gt;&lt;/b&gt;&lt;/p&gt;&lt;hr size=&quot;1&quot;&gt;&lt;p style=&quot;margin: 0px ; margin-left: 4px&quot;&gt;+ field1: Type&lt;br&gt;+ field2: Type&lt;/p&gt;&lt;hr size=&quot;1&quot;&gt;&lt;p style=&quot;margin: 0px ; margin-left: 4px&quot;&gt;+ method1(Type): Type&lt;br&gt;+ method2(Type, Type): Type&lt;/p&gt;" style="verticalAlign=top;align=left;overflow=fill;fontSize=12;fontFamily=Helvetica;html=1;" vertex="1" parent="WIyWlLk6GJQsqaUBKTNV-1">
          <mxGeometry x="240" y="340" width="190" height="140" as="geometry" />
        </mxCell>
        <mxCell id="5NiMujkeU3VhjjDBXKxC-1" value="&lt;p style=&quot;margin: 0px ; margin-top: 4px ; text-align: center&quot;&gt;&lt;i&gt;&amp;lt;&amp;lt;Interface&amp;gt;&amp;gt;&lt;/i&gt;&lt;br&gt;&lt;b&gt;Interface: IPanelModel&lt;br&gt;&lt;/b&gt;&lt;/p&gt;&lt;hr size=&quot;1&quot;&gt;&lt;p style=&quot;margin: 0px ; margin-left: 4px&quot;&gt;+ field1: Type&lt;br&gt;+ field2: Type&lt;/p&gt;&lt;hr size=&quot;1&quot;&gt;&lt;p style=&quot;margin: 0px ; margin-left: 4px&quot;&gt;+ method1(Type): Type&lt;br&gt;+ method2(Type, Type): Type&lt;/p&gt;" style="verticalAlign=top;align=left;overflow=fill;fontSize=12;fontFamily=Helvetica;html=1;" vertex="1" parent="WIyWlLk6GJQsqaUBKTNV-1">
          <mxGeometry x="930" y="350" width="190" height="140" as="geometry" />
        </mxCell>
        <mxCell id="5NiMujkeU3VhjjDBXKxC-2" value="&lt;p style=&quot;margin: 0px ; margin-top: 4px ; text-align: center&quot;&gt;&lt;i&gt;&amp;lt;&amp;lt;Interface&amp;gt;&amp;gt;&lt;/i&gt;&lt;br&gt;&lt;b&gt;Interface: IServer&lt;br&gt;&lt;/b&gt;&lt;/p&gt;&lt;hr size=&quot;1&quot;&gt;&lt;p style=&quot;margin: 0px ; margin-left: 4px&quot;&gt;+ field1: Type&lt;br&gt;+ field2: Type&lt;/p&gt;&lt;hr size=&quot;1&quot;&gt;&lt;p style=&quot;margin: 0px ; margin-left: 4px&quot;&gt;+ method1(Type): Type&lt;br&gt;+ method2(Type, Type): Type&lt;/p&gt;" style="verticalAlign=top;align=left;overflow=fill;fontSize=12;fontFamily=Helvetica;html=1;" vertex="1" parent="WIyWlLk6GJQsqaUBKTNV-1">
          <mxGeometry x="1520" y="350" width="190" height="140" as="geometry" />
        </mxCell>
        <mxCell id="5NiMujkeU3VhjjDBXKxC-3" value="&lt;p style=&quot;margin: 0px ; margin-top: 4px ; text-align: center&quot;&gt;&lt;i&gt;&amp;lt;&amp;lt;Interface&amp;gt;&amp;gt;&lt;/i&gt;&lt;br&gt;&lt;b&gt;Interface: INotifyPropertyChanged &lt;br&gt;&lt;/b&gt;&lt;/p&gt;&lt;hr size=&quot;1&quot;&gt;&lt;p style=&quot;margin: 0px ; margin-left: 4px&quot;&gt;+ field1: Type&lt;br&gt;+ field2: Type&lt;/p&gt;&lt;hr size=&quot;1&quot;&gt;&lt;p style=&quot;margin: 0px ; margin-left: 4px&quot;&gt;+ method1(Type): Type&lt;br&gt;+ method2(Type, Type): Type&lt;/p&gt;" style="verticalAlign=top;align=left;overflow=fill;fontSize=12;fontFamily=Helvetica;html=1;" vertex="1" parent="WIyWlLk6GJQsqaUBKTNV-1">
          <mxGeometry x="590" y="50" width="280" height="170" as="geometry" />
        </mxCell>
        <mxCell id="5NiMujkeU3VhjjDBXKxC-5" value="" style="endArrow=block;dashed=1;endFill=0;endSize=12;html=1;entryX=1;entryY=0.75;entryDx=0;entryDy=0;exitX=0.5;exitY=0;exitDx=0;exitDy=0;" edge="1" parent="WIyWlLk6GJQsqaUBKTNV-1" source="5NiMujkeU3VhjjDBXKxC-1" target="5NiMujkeU3VhjjDBXKxC-3">
          <mxGeometry width="160" relative="1" as="geometry">
            <mxPoint x="910" y="270" as="sourcePoint" />
            <mxPoint x="1070" y="270" as="targetPoint" />
          </mxGeometry>
        </mxCell>
        <mxCell id="5NiMujkeU3VhjjDBXKxC-6" value="" style="endArrow=block;dashed=1;endFill=0;endSize=12;html=1;entryX=1;entryY=0.5;entryDx=0;entryDy=0;exitX=0.5;exitY=0;exitDx=0;exitDy=0;" edge="1" parent="WIyWlLk6GJQsqaUBKTNV-1" source="5NiMujkeU3VhjjDBXKxC-2" target="5NiMujkeU3VhjjDBXKxC-3">
          <mxGeometry width="160" relative="1" as="geometry">
            <mxPoint x="1450" y="280" as="sourcePoint" />
            <mxPoint x="1610" y="280" as="targetPoint" />
          </mxGeometry>
        </mxCell>
        <mxCell id="5NiMujkeU3VhjjDBXKxC-12" value="&lt;p style=&quot;margin: 0px ; margin-top: 4px ; text-align: center&quot;&gt;&lt;b&gt;Class: PanelModel&lt;br&gt;&lt;/b&gt;&lt;/p&gt;&lt;hr size=&quot;1&quot;&gt;&lt;div style=&quot;height: 2px&quot;&gt;&lt;/div&gt;&lt;hr size=&quot;1&quot;&gt;&lt;div style=&quot;height: 2px&quot;&gt;&lt;/div&gt;" style="verticalAlign=top;align=left;overflow=fill;fontSize=12;fontFamily=Helvetica;html=1;" vertex="1" parent="WIyWlLk6GJQsqaUBKTNV-1">
          <mxGeometry x="1130" y="1150" width="260" height="130" as="geometry" />
        </mxCell>
        <mxCell id="5NiMujkeU3VhjjDBXKxC-13" value="&lt;p style=&quot;margin: 0px ; margin-top: 4px ; text-align: center&quot;&gt;&lt;b&gt;Class: FileParser&lt;br&gt;&lt;/b&gt;&lt;/p&gt;&lt;hr size=&quot;1&quot;&gt;&lt;div style=&quot;height: 2px&quot;&gt;&lt;/div&gt;&lt;hr size=&quot;1&quot;&gt;&lt;div style=&quot;height: 2px&quot;&gt;&lt;/div&gt;" style="verticalAlign=top;align=left;overflow=fill;fontSize=12;fontFamily=Helvetica;html=1;" vertex="1" parent="WIyWlLk6GJQsqaUBKTNV-1">
          <mxGeometry x="950" y="730" width="260" height="130" as="geometry" />
        </mxCell>
        <mxCell id="5NiMujkeU3VhjjDBXKxC-14" value="&lt;p style=&quot;margin: 0px ; margin-top: 4px ; text-align: center&quot;&gt;&lt;b&gt;Class:InfoServer&lt;/b&gt;&lt;/p&gt;&lt;hr size=&quot;1&quot;&gt;&lt;div style=&quot;height: 2px&quot;&gt;&lt;/div&gt;&lt;hr size=&quot;1&quot;&gt;&lt;div style=&quot;height: 2px&quot;&gt;&lt;/div&gt;" style="verticalAlign=top;align=left;overflow=fill;fontSize=12;fontFamily=Helvetica;html=1;" vertex="1" parent="WIyWlLk6GJQsqaUBKTNV-1">
          <mxGeometry x="1420" y="720" width="260" height="130" as="geometry" />
        </mxCell>
        <mxCell id="5NiMujkeU3VhjjDBXKxC-16" value="&lt;p style=&quot;margin: 0px ; margin-top: 4px ; text-align: center&quot;&gt;&lt;b&gt;Class:Client&lt;/b&gt;&lt;/p&gt;&lt;hr size=&quot;1&quot;&gt;&lt;div style=&quot;height: 2px&quot;&gt;&lt;/div&gt;&lt;hr size=&quot;1&quot;&gt;&lt;div style=&quot;height: 2px&quot;&gt;&lt;/div&gt;" style="verticalAlign=top;align=left;overflow=fill;fontSize=12;fontFamily=Helvetica;html=1;" vertex="1" parent="WIyWlLk6GJQsqaUBKTNV-1">
          <mxGeometry x="310" y="730" width="260" height="130" as="geometry" />
        </mxCell>
        <mxCell id="5NiMujkeU3VhjjDBXKxC-17" value="&lt;p style=&quot;margin: 0px ; margin-top: 4px ; text-align: center&quot;&gt;&lt;b&gt;Class: GraphManager&lt;br&gt;&lt;/b&gt;&lt;/p&gt;&lt;hr size=&quot;1&quot;&gt;&lt;div style=&quot;height: 2px&quot;&gt;&lt;/div&gt;&lt;hr size=&quot;1&quot;&gt;&lt;div style=&quot;height: 2px&quot;&gt;&lt;/div&gt;" style="verticalAlign=top;align=left;overflow=fill;fontSize=12;fontFamily=Helvetica;html=1;" vertex="1" parent="WIyWlLk6GJQsqaUBKTNV-1">
          <mxGeometry x="1130" y="1510" width="260" height="130" as="geometry" />
        </mxCell>
        <mxCell id="5NiMujkeU3VhjjDBXKxC-18" value="&lt;p style=&quot;margin: 0px ; margin-top: 4px ; text-align: center&quot;&gt;&lt;b&gt;Class: MasterViewModel&lt;br&gt;&lt;/b&gt;&lt;/p&gt;&lt;hr size=&quot;1&quot;&gt;&lt;div style=&quot;height: 2px&quot;&gt;&lt;/div&gt;&lt;hr size=&quot;1&quot;&gt;&lt;div style=&quot;height: 2px&quot;&gt;&lt;/div&gt;" style="verticalAlign=top;align=left;overflow=fill;fontSize=12;fontFamily=Helvetica;html=1;" vertex="1" parent="WIyWlLk6GJQsqaUBKTNV-1">
          <mxGeometry x="1140" y="1770" width="390" height="240" as="geometry" />
        </mxCell>
        <mxCell id="5NiMujkeU3VhjjDBXKxC-19" value="&lt;p style=&quot;margin: 0px ; margin-top: 4px ; text-align: center&quot;&gt;&lt;b&gt;Class: GraphViewModel&lt;br&gt;&lt;/b&gt;&lt;/p&gt;&lt;hr size=&quot;1&quot;&gt;&lt;div style=&quot;height: 2px&quot;&gt;&lt;/div&gt;&lt;hr size=&quot;1&quot;&gt;&lt;div style=&quot;height: 2px&quot;&gt;&lt;/div&gt;" style="verticalAlign=top;align=left;overflow=fill;fontSize=12;fontFamily=Helvetica;html=1;" vertex="1" parent="WIyWlLk6GJQsqaUBKTNV-1">
          <mxGeometry x="630" y="1520" width="260" height="130" as="geometry" />
        </mxCell>
        <mxCell id="5NiMujkeU3VhjjDBXKxC-20" value="&lt;p style=&quot;margin: 0px ; margin-top: 4px ; text-align: center&quot;&gt;&lt;b&gt;Class: GraphModel&lt;br&gt;&lt;/b&gt;&lt;/p&gt;&lt;hr size=&quot;1&quot;&gt;&lt;div style=&quot;height: 2px&quot;&gt;&lt;/div&gt;&lt;hr size=&quot;1&quot;&gt;&lt;div style=&quot;height: 2px&quot;&gt;&lt;/div&gt;" style="verticalAlign=top;align=left;overflow=fill;fontSize=12;fontFamily=Helvetica;html=1;" vertex="1" parent="WIyWlLk6GJQsqaUBKTNV-1">
          <mxGeometry x="480" y="1150" width="260" height="130" as="geometry" />
        </mxCell>
        <mxCell id="5NiMujkeU3VhjjDBXKxC-24" value="&lt;p style=&quot;margin: 0px ; margin-top: 4px ; text-align: center&quot;&gt;&lt;b&gt;Class: PanelViewModel&lt;br&gt;&lt;/b&gt;&lt;/p&gt;&lt;hr size=&quot;1&quot;&gt;&lt;div style=&quot;height: 2px&quot;&gt;&lt;/div&gt;&lt;hr size=&quot;1&quot;&gt;&lt;div style=&quot;height: 2px&quot;&gt;&lt;/div&gt;" style="verticalAlign=top;align=left;overflow=fill;fontSize=12;fontFamily=Helvetica;html=1;" vertex="1" parent="WIyWlLk6GJQsqaUBKTNV-1">
          <mxGeometry x="540" y="1770" width="350" height="180" as="geometry" />
        </mxCell>
        <mxCell id="5NiMujkeU3VhjjDBXKxC-25" value="&lt;p style=&quot;margin: 0px ; margin-top: 4px ; text-align: center&quot;&gt;&lt;b&gt;Class: GraphWindow&lt;br&gt;&lt;/b&gt;&lt;/p&gt;&lt;hr size=&quot;1&quot;&gt;&lt;div style=&quot;height: 2px&quot;&gt;&lt;/div&gt;&lt;hr size=&quot;1&quot;&gt;&lt;div style=&quot;height: 2px&quot;&gt;&lt;/div&gt;" style="verticalAlign=top;align=left;overflow=fill;fontSize=12;fontFamily=Helvetica;html=1;" vertex="1" parent="WIyWlLk6GJQsqaUBKTNV-1">
          <mxGeometry x="1120" y="2170" width="340" height="210" as="geometry" />
        </mxCell>
        <mxCell id="5NiMujkeU3VhjjDBXKxC-26" value="&lt;p style=&quot;margin: 0px ; margin-top: 4px ; text-align: center&quot;&gt;&lt;b&gt;Class: PanelView&lt;br&gt;&lt;/b&gt;&lt;/p&gt;&lt;hr size=&quot;1&quot;&gt;&lt;div style=&quot;height: 2px&quot;&gt;&lt;/div&gt;&lt;hr size=&quot;1&quot;&gt;&lt;div style=&quot;height: 2px&quot;&gt;&lt;/div&gt;" style="verticalAlign=top;align=left;overflow=fill;fontSize=12;fontFamily=Helvetica;html=1;" vertex="1" parent="WIyWlLk6GJQsqaUBKTNV-1">
          <mxGeometry x="550" y="2190" width="310" height="190" as="geometry" />
        </mxCell>
        <mxCell id="5NiMujkeU3VhjjDBXKxC-27" value="" style="endArrow=diamondThin;endFill=0;endSize=24;html=1;entryX=0;entryY=0.25;entryDx=0;entryDy=0;" edge="1" parent="WIyWlLk6GJQsqaUBKTNV-1" target="5NiMujkeU3VhjjDBXKxC-14">
          <mxGeometry width="160" relative="1" as="geometry">
            <mxPoint x="1220" y="790" as="sourcePoint" />
            <mxPoint x="1380" y="790" as="targetPoint" />
          </mxGeometry>
        </mxCell>
        <mxCell id="5NiMujkeU3VhjjDBXKxC-29" value="" style="endArrow=diamondThin;endFill=0;endSize=24;html=1;exitX=0.25;exitY=1;exitDx=0;exitDy=0;" edge="1" parent="WIyWlLk6GJQsqaUBKTNV-1" source="5NiMujkeU3VhjjDBXKxC-17" target="5NiMujkeU3VhjjDBXKxC-18">
          <mxGeometry width="160" relative="1" as="geometry">
            <mxPoint x="1180" y="1700" as="sourcePoint" />
            <mxPoint x="1340" y="1700" as="targetPoint" />
          </mxGeometry>
        </mxCell>
        <mxCell id="5NiMujkeU3VhjjDBXKxC-30" value="" style="endArrow=diamondThin;endFill=0;endSize=24;html=1;entryX=0;entryY=0.5;entryDx=0;entryDy=0;exitX=1;exitY=0.75;exitDx=0;exitDy=0;" edge="1" parent="WIyWlLk6GJQsqaUBKTNV-1" source="5NiMujkeU3VhjjDBXKxC-19" target="5NiMujkeU3VhjjDBXKxC-17">
          <mxGeometry width="160" relative="1" as="geometry">
            <mxPoint x="920" y="1600" as="sourcePoint" />
            <mxPoint x="1080" y="1600" as="targetPoint" />
          </mxGeometry>
        </mxCell>
        <mxCell id="5NiMujkeU3VhjjDBXKxC-31" value="" style="endArrow=diamondThin;endFill=0;endSize=24;html=1;exitX=0.25;exitY=1;exitDx=0;exitDy=0;entryX=1;entryY=0.5;entryDx=0;entryDy=0;" edge="1" parent="WIyWlLk6GJQsqaUBKTNV-1" source="5NiMujkeU3VhjjDBXKxC-12" target="5NiMujkeU3VhjjDBXKxC-24">
          <mxGeometry width="160" relative="1" as="geometry">
            <mxPoint x="960" y="1360" as="sourcePoint" />
            <mxPoint x="1120" y="1360" as="targetPoint" />
            <Array as="points">
              <mxPoint x="1110" y="1330" />
            </Array>
          </mxGeometry>
        </mxCell>
        <mxCell id="5NiMujkeU3VhjjDBXKxC-32" value="" style="endArrow=diamondThin;endFill=0;endSize=24;html=1;entryX=0;entryY=0.5;entryDx=0;entryDy=0;" edge="1" parent="WIyWlLk6GJQsqaUBKTNV-1" target="5NiMujkeU3VhjjDBXKxC-18">
          <mxGeometry width="160" relative="1" as="geometry">
            <mxPoint x="890" y="1890" as="sourcePoint" />
            <mxPoint x="1070" y="1890" as="targetPoint" />
          </mxGeometry>
        </mxCell>
        <mxCell id="5NiMujkeU3VhjjDBXKxC-33" value="" style="endArrow=diamondThin;endFill=0;endSize=24;html=1;entryX=0.25;entryY=0;entryDx=0;entryDy=0;exitX=0.25;exitY=1;exitDx=0;exitDy=0;" edge="1" parent="WIyWlLk6GJQsqaUBKTNV-1" source="5NiMujkeU3VhjjDBXKxC-20" target="5NiMujkeU3VhjjDBXKxC-19">
          <mxGeometry width="160" relative="1" as="geometry">
            <mxPoint x="550" y="1400" as="sourcePoint" />
            <mxPoint x="710" y="1400" as="targetPoint" />
          </mxGeometry>
        </mxCell>
        <mxCell id="5NiMujkeU3VhjjDBXKxC-34" value="" style="endArrow=diamondThin;endFill=0;endSize=24;html=1;entryX=0.871;entryY=-0.017;entryDx=0;entryDy=0;exitX=0;exitY=0.5;exitDx=0;exitDy=0;entryPerimeter=0;" edge="1" parent="WIyWlLk6GJQsqaUBKTNV-1" source="5NiMujkeU3VhjjDBXKxC-14" target="5NiMujkeU3VhjjDBXKxC-24">
          <mxGeometry width="160" relative="1" as="geometry">
            <mxPoint x="1450" y="760" as="sourcePoint" />
            <mxPoint x="890" y="1310" as="targetPoint" />
            <Array as="points">
              <mxPoint x="830" y="1050" />
            </Array>
          </mxGeometry>
        </mxCell>
        <mxCell id="5NiMujkeU3VhjjDBXKxC-36" value="" style="endArrow=diamondThin;endFill=0;endSize=24;html=1;entryX=0.25;entryY=0;entryDx=0;entryDy=0;exitX=0.75;exitY=1;exitDx=0;exitDy=0;" edge="1" parent="WIyWlLk6GJQsqaUBKTNV-1" source="5NiMujkeU3VhjjDBXKxC-16" target="5NiMujkeU3VhjjDBXKxC-12">
          <mxGeometry width="160" relative="1" as="geometry">
            <mxPoint x="620" y="870" as="sourcePoint" />
            <mxPoint x="780" y="870" as="targetPoint" />
          </mxGeometry>
        </mxCell>
        <mxCell id="5NiMujkeU3VhjjDBXKxC-38" value="" style="endArrow=diamondThin;endFill=0;endSize=24;html=1;entryX=0.5;entryY=0;entryDx=0;entryDy=0;" edge="1" parent="WIyWlLk6GJQsqaUBKTNV-1" source="5NiMujkeU3VhjjDBXKxC-18" target="5NiMujkeU3VhjjDBXKxC-25">
          <mxGeometry width="160" relative="1" as="geometry">
            <mxPoint x="1250" y="2060" as="sourcePoint" />
            <mxPoint x="1410" y="2060" as="targetPoint" />
          </mxGeometry>
        </mxCell>
        <mxCell id="5NiMujkeU3VhjjDBXKxC-39" value="" style="endArrow=diamondThin;endFill=0;endSize=24;html=1;entryX=0;entryY=0.617;entryDx=0;entryDy=0;entryPerimeter=0;exitX=1.016;exitY=0.629;exitDx=0;exitDy=0;exitPerimeter=0;" edge="1" parent="WIyWlLk6GJQsqaUBKTNV-1" source="5NiMujkeU3VhjjDBXKxC-26" target="5NiMujkeU3VhjjDBXKxC-25">
          <mxGeometry width="160" relative="1" as="geometry">
            <mxPoint x="910" y="2300" as="sourcePoint" />
            <mxPoint x="1070" y="2300" as="targetPoint" />
          </mxGeometry>
        </mxCell>
        <mxCell id="5NiMujkeU3VhjjDBXKxC-40" value="" style="endArrow=diamondThin;endFill=0;endSize=24;html=1;entryX=1;entryY=0.25;entryDx=0;entryDy=0;exitX=0;exitY=0.25;exitDx=0;exitDy=0;" edge="1" parent="WIyWlLk6GJQsqaUBKTNV-1" source="5NiMujkeU3VhjjDBXKxC-25" target="5NiMujkeU3VhjjDBXKxC-26">
          <mxGeometry width="160" relative="1" as="geometry">
            <mxPoint x="940" y="2230" as="sourcePoint" />
            <mxPoint x="1100" y="2230" as="targetPoint" />
          </mxGeometry>
        </mxCell>
        <mxCell id="5NiMujkeU3VhjjDBXKxC-41" value="Use" style="endArrow=open;endSize=12;dashed=1;html=1;entryX=0.334;entryY=-0.011;entryDx=0;entryDy=0;entryPerimeter=0;exitX=0.56;exitY=1.017;exitDx=0;exitDy=0;exitPerimeter=0;" edge="1" parent="WIyWlLk6GJQsqaUBKTNV-1" source="5NiMujkeU3VhjjDBXKxC-0" target="5NiMujkeU3VhjjDBXKxC-16">
          <mxGeometry width="160" relative="1" as="geometry">
            <mxPoint x="350" y="640" as="sourcePoint" />
            <mxPoint x="510" y="640" as="targetPoint" />
          </mxGeometry>
        </mxCell>
        <mxCell id="5NiMujkeU3VhjjDBXKxC-42" value="Use" style="endArrow=open;endSize=12;dashed=1;html=1;exitX=0.75;exitY=1;exitDx=0;exitDy=0;" edge="1" parent="WIyWlLk6GJQsqaUBKTNV-1" source="5NiMujkeU3VhjjDBXKxC-1" target="5NiMujkeU3VhjjDBXKxC-12">
          <mxGeometry width="160" relative="1" as="geometry">
            <mxPoint x="1150" y="640" as="sourcePoint" />
            <mxPoint x="1310" y="640" as="targetPoint" />
          </mxGeometry>
        </mxCell>
        <mxCell id="5NiMujkeU3VhjjDBXKxC-43" value="Use" style="endArrow=open;endSize=12;dashed=1;html=1;entryX=0.5;entryY=0;entryDx=0;entryDy=0;exitX=0.25;exitY=1;exitDx=0;exitDy=0;" edge="1" parent="WIyWlLk6GJQsqaUBKTNV-1" source="5NiMujkeU3VhjjDBXKxC-2" target="5NiMujkeU3VhjjDBXKxC-14">
          <mxGeometry width="160" relative="1" as="geometry">
            <mxPoint x="1550" y="530" as="sourcePoint" />
            <mxPoint x="1710" y="530" as="targetPoint" />
          </mxGeometry>
        </mxCell>
        <mxCell id="5NiMujkeU3VhjjDBXKxC-44" value="" style="endArrow=diamondThin;endFill=0;endSize=24;html=1;entryX=0.906;entryY=-0.001;entryDx=0;entryDy=0;entryPerimeter=0;exitX=0.5;exitY=1;exitDx=0;exitDy=0;" edge="1" parent="WIyWlLk6GJQsqaUBKTNV-1" source="5NiMujkeU3VhjjDBXKxC-14" target="5NiMujkeU3VhjjDBXKxC-18">
          <mxGeometry width="160" relative="1" as="geometry">
            <mxPoint x="1530" y="950" as="sourcePoint" />
            <mxPoint x="1690" y="950" as="targetPoint" />
          </mxGeometry>
        </mxCell>
      </root>
    </mxGraphModel>
  </diagram>
</mxfile>
